<svg width="1597" height="857" viewBox="0 0 1597 857" fill="none" xmlns="http://www.w3.org/2000/svg">
<mask id="mask0_145_6" style="mask-type:alpha" maskUnits="userSpaceOnUse" x="0" y="0" width="1597" height="857">
<rect width="1597" height="857" fill="#F3F3F3"/>
</mask>
<g mask="url(#mask0_145_6)">
<path d="M-63.0004 1094.99C-63.0004 1094.99 -553.5 142 200 53.9998C953.5 -34 -35.0256 225.404 1283 180C2601.02 134.596 1554.86 1094.99 1554.86 1094.99L-63.0004 1094.99Z" fill="#F3F3F3"/>
</g>
<path d="M1474.5 757C1474.5 768.333 1465.53 777.5 1454.5 777.5C1443.47 777.5 1434.5 768.333 1434.5 757C1434.5 745.667 1443.47 736.5 1454.5 736.5C1465.53 736.5 1474.5 745.667 1474.5 757Z" stroke="#AD9AB8"/>
<path d="M1597 770V857H1486C1518.23 807.289 1541.31 786.495 1597 770Z" fill="#AD9AB8"/>
</svg>
