<svg width="90" height="57" viewBox="0 0 90 57" fill="none" xmlns="http://www.w3.org/2000/svg">
<path d="M26.1792 0C28.7724 0 31.1686 0.196879 33.3681 0.787514C35.5618 1.18127 37.3675 2.00253 38.9707 2.98692C40.5794 3.97694 41.7663 5.38321 42.5763 7.18887C43.3638 8.9889 43.7914 11.1883 43.7914 13.5846C43.7914 16.3746 43.1951 18.7709 41.7888 20.571C40.5794 22.371 38.605 23.9798 36.1806 25.1667C39.5894 26.1567 42.1826 27.9567 43.7632 30.353C45.3439 32.7493 46.3564 35.7362 46.3564 39.145C46.3564 41.9351 45.7658 44.3314 44.7533 46.3339C43.7432 48.3495 42.2276 50.0687 40.3544 51.3234C38.5544 52.5328 36.355 53.5171 33.9587 54.1134C31.6113 54.7333 29.1974 55.0658 26.7698 55.1034L0 55.1428V0H26.1792ZM24.576 22.3766C26.7698 22.3766 28.5699 21.786 29.9593 20.7735C31.343 19.761 31.9562 17.9778 31.9562 15.784C31.9562 14.569 31.7593 13.3877 31.3655 12.5946C30.9393 11.7907 30.321 11.1047 29.5655 10.5977C28.7495 10.1527 27.8772 9.81974 26.9723 9.60766C25.9823 9.41078 24.9698 9.41078 23.7829 9.41078H12.2065V22.4048C12.2065 22.3766 24.5817 22.3766 24.5817 22.3766H24.576ZM25.1667 45.9626C26.3761 45.9626 27.563 45.7658 28.5755 45.5689C29.5655 45.372 30.578 44.9726 31.3655 44.3539C32.153 43.7351 32.7718 43.1445 33.3681 42.1601C33.7618 41.1701 34.1556 39.9607 34.1556 38.5544C34.1556 35.7644 33.3681 33.7618 31.7593 32.3555C30.1561 31.1461 27.9567 30.5555 25.3636 30.5555H12.2065V45.9345H25.1723V45.9626H25.1667ZM63.7436 45.7658C65.3523 47.3689 67.743 48.1621 70.9324 48.1621C73.1262 48.1621 75.1288 47.5658 76.7375 46.5533C78.3407 45.3439 79.3251 44.157 79.7188 42.9532H89.5065C87.8977 47.7402 85.5014 51.149 82.3176 53.3484C79.1338 55.3453 75.3256 56.5322 70.7299 56.5322C67.7912 56.5452 64.8766 56.0013 62.1404 54.9291C59.6779 54.0136 57.4805 52.5023 55.7447 50.5302C53.8932 48.6913 52.5184 46.4283 51.7396 43.9376C50.7552 41.3444 50.3333 38.5544 50.3333 35.3425C50.3333 32.3555 50.7271 29.5374 51.7396 26.9442C52.7521 24.3567 54.1359 22.1516 55.9416 20.1547C57.7416 18.3547 59.941 16.7459 62.3373 15.7559C65.0092 14.6921 67.8596 14.1479 70.7356 14.1527C74.1444 14.1527 77.1313 14.7434 79.7245 16.1496C82.312 17.5559 84.3202 19.1422 85.9233 21.5385C87.5265 23.7323 88.7134 26.3254 89.529 29.1211C89.9228 31.9112 90.1196 34.7237 89.9228 37.9131H60.9535C60.9535 41.1757 62.1348 44.157 63.7436 45.7658ZM76.3438 24.7729C74.9375 23.3666 72.7325 22.5735 70.1393 22.5735C68.3393 22.5735 66.9555 22.9673 65.7461 23.5635C64.5367 24.1542 63.7436 24.9698 62.9561 25.7573C62.2208 26.5294 61.7314 27.5024 61.5498 28.553C61.3473 29.5374 61.156 30.353 61.156 31.1405H79.1338C78.7401 28.1817 77.7276 26.1792 76.3382 24.7729H76.3438ZM58.7541 3.80256H81.1307V9.18578H58.7541V3.80256Z" fill="#67427E"/>
</svg>
