<svg width="60" height="60" viewBox="0 0 60 60" fill="none" xmlns="http://www.w3.org/2000/svg">
<path fill-rule="evenodd" clip-rule="evenodd" d="M30 60C46.5685 60 60 46.5685 60 30C60 13.4315 46.5685 0 30 0C13.4315 0 0 13.4315 0 30C0 46.5685 13.4315 60 30 60ZM42.3913 18.2609C44.1848 18.2609 45.6522 19.7283 45.6522 21.5217V41.087C45.6522 42.8804 44.1848 44.3478 42.3913 44.3478H16.3044C14.5109 44.3478 13.0435 42.8804 13.0435 41.087V21.5217C13.0435 19.7283 14.5109 18.2609 16.3044 18.2609H42.3913ZM29.3479 29.6739L42.3913 21.5217H16.3044L29.3479 29.6739ZM16.3044 24.7826V41.087H42.3913V24.7826L29.3479 32.9348L16.3044 24.7826Z" fill="#67427E"/>
</svg>
