<svg width="90" height="90" viewBox="0 0 90 90" fill="none" xmlns="http://www.w3.org/2000/svg">
<path d="M0 6.44625C0 2.88563 2.95875 0 6.60937 0H83.3906C87.0413 0 90 2.88563 90 6.44625V83.5537C90 87.1144 87.0413 90 83.3906 90H6.60937C2.95875 90 0 87.1144 0 83.5537V6.44625ZM27.8044 75.3412V34.7006H14.2987V75.3412H27.8044ZM21.0544 29.1488C25.7625 29.1488 28.6931 26.0325 28.6931 22.1287C28.6087 18.1406 25.7681 15.1088 21.1444 15.1088C16.5206 15.1088 13.5 18.1462 13.5 22.1287C13.5 26.0325 16.4306 29.1488 20.9644 29.1488H21.0544ZM48.6619 75.3412V52.6444C48.6619 51.4294 48.7519 50.2144 49.1119 49.3481C50.085 46.9237 52.3069 44.4094 56.0419 44.4094C60.93 44.4094 62.8819 48.1331 62.8819 53.6006V75.3412H76.3875V52.0312C76.3875 39.5438 69.7275 33.7388 60.84 33.7388C53.6737 33.7388 50.4619 37.6763 48.6619 40.4494V40.59H48.5719C48.6017 40.543 48.6317 40.4962 48.6619 40.4494V34.7006H35.1619C35.3306 38.5144 35.1619 75.3412 35.1619 75.3412H48.6619Z" fill="#67427E"/>
</svg>
