<svg width="60" height="60" viewBox="0 0 60 60" fill="none" xmlns="http://www.w3.org/2000/svg">
<path fill-rule="evenodd" clip-rule="evenodd" d="M30 60C46.5685 60 60 46.5685 60 30C60 13.4315 46.5685 0 30 0C13.4315 0 0 13.4315 0 30C0 46.5685 13.4315 60 30 60ZM36.152 36.6404L40.3939 37.1247C42.0806 37.3251 43.3498 38.7446 43.3331 40.4314V43.3205C43.3331 45.2077 41.7633 46.7775 39.8762 46.6606C25.6308 45.7755 14.2245 34.3858 13.3394 20.1237C13.2225 18.2366 14.7923 16.6667 16.6795 16.6667H19.5686C21.272 16.6667 22.6916 17.936 22.892 19.6227L23.3763 23.8312C23.4932 24.8499 23.1425 25.8519 22.4244 26.57L19.3348 29.6596C21.7397 34.4025 25.6141 38.2603 30.3403 40.6652L33.4132 37.5923C34.1313 36.8742 35.1333 36.5235 36.152 36.6404Z" fill="#67427E"/>
</svg>
